<?xml version="1.0" standalone="no"?>
<!DOCTYPE svg PUBLIC "-//W3C//DTD SVG 20010904//EN"
 "http://www.w3.org/TR/2001/REC-SVG-20010904/DTD/svg10.dtd">
<svg version="1.0" xmlns="http://www.w3.org/2000/svg"
 width="250.000000pt" height="250.000000pt" viewBox="0 0 250.000000 250.000000"
 preserveAspectRatio="xMidYMid meet">
<metadata>
Created by potrace 1.13, written by Peter Selinger 2001-2015
</metadata>
<g transform="translate(0.000000,250.000000) scale(0.100000,-0.100000)"
fill="#000000" stroke="none">
<path d="M1060 2435 c-488 -77 -879 -451 -986 -945 -26 -118 -26 -362 0 -480
94 -433 401 -773 818 -905 668 -211 1373 208 1524 905 26 118 26 362 0 480
-53 245 -174 461 -355 633 -266 253 -637 369 -1001 312z m-103 -723 c95 -68
90 -256 -10 -360 -41 -43 -78 -62 -119 -62 -43 0 -73 22 -98 71 -11 21 -23 39
-27 39 -3 0 -32 -10 -64 -21 -57 -21 -60 -23 -74 -72 -30 -100 -14 -206 38
-258 23 -24 37 -29 76 -29 62 0 125 22 183 65 40 30 50 43 64 92 47 163 142
272 250 289 99 15 162 -26 190 -122 14 -49 17 -53 36 -43 37 20 99 82 118 118
10 20 23 63 30 96 15 76 33 105 66 105 34 0 41 -25 21 -81 -22 -60 -21 -68 6
-97 34 -36 31 -166 -6 -285 -65 -206 15 -172 169 72 141 223 223 321 268 321
25 0 19 -33 -14 -78 -16 -23 -30 -51 -30 -61 0 -11 13 -71 29 -133 16 -62 32
-141 36 -175 4 -35 8 -63 10 -63 1 0 24 9 50 21 25 11 48 19 51 17 2 -2 -1
-20 -6 -40 -9 -31 -18 -39 -63 -57 -35 -15 -59 -33 -75 -57 -44 -68 -133 -94
-201 -59 -32 16 -71 87 -71 127 0 53 46 148 72 148 4 0 8 -20 8 -44 0 -36 5
-49 25 -64 30 -24 60 -19 82 15 13 20 15 45 10 151 -4 70 -10 140 -15 157 l-8
30 -45 -61 c-24 -33 -80 -125 -124 -204 -53 -95 -98 -162 -135 -200 -92 -94
-172 -107 -228 -35 -44 56 -24 151 63 300 58 98 88 176 79 200 -5 12 -18 4
-54 -38 -27 -29 -71 -69 -98 -87 -46 -33 -49 -37 -60 -99 -15 -90 -71 -198
-129 -252 -52 -48 -145 -86 -185 -76 -71 18 -138 103 -138 174 0 18 -2 33 -4
33 -3 0 -18 -12 -33 -26 -54 -52 -127 -106 -172 -129 -220 -110 -392 71 -323
340 11 44 23 88 27 97 5 13 -2 19 -35 29 -40 12 -90 58 -90 83 0 23 38 63 66
70 34 9 57 -9 44 -34 -22 -40 -7 -70 34 -70 7 0 35 32 62 72 128 189 247 272
379 265 43 -2 70 -9 92 -25z"/>
<path d="M815 1671 c-22 -10 -56 -36 -77 -57 -44 -48 -132 -183 -124 -192 14
-14 95 39 127 83 29 40 71 66 85 53 2 -3 -3 -19 -12 -37 -28 -56 -3 -111 51
-111 44 0 80 42 94 111 27 123 -45 197 -144 150z"/>
<path d="M1132 1333 c-49 -50 -65 -74 -78 -119 -23 -79 -16 -170 15 -195 63
-51 152 5 211 133 25 54 30 73 20 76 -36 12 -82 69 -94 117 l-13 50 -61 -62z"/>
</g>
</svg>
